<svg id="Layer_1" data-name="Layer 1" xmlns="http://www.w3.org/2000/svg" viewBox="0 0 361.58 307.56"><defs><style>.cls-1{fill:#fff;}</style></defs><path class="cls-1" d="M560.89,442.92V427.16q0-4.85,2-6.48t6.58-1.65h2.92V411.9H570a15.17,15.17,0,0,0-5.77,1,8.58,8.58,0,0,0-3.79,2.85l-1.49-3.84h-5.58v31Zm-27.06-25.25a6.25,6.25,0,0,1,4.9,1.86,7.91,7.91,0,0,1,1.87,5H526.51a7.75,7.75,0,0,1,1.89-5,6.37,6.37,0,0,1,4.94-1.86Zm6.33,15.88a6.5,6.5,0,0,1-2.23,2.64,6.57,6.57,0,0,1-3.73,1h-.49a6.79,6.79,0,0,1-5.25-1.92,8.16,8.16,0,0,1-2-5h21.72V427q0-7.26-3.85-11.61t-10.49-4.34h-.49q-6.65,0-10.52,4.31a16,16,0,0,0-3.88,11.14v2a17.78,17.78,0,0,0,1,6.14,13.76,13.76,0,0,0,2.92,4.78,13.09,13.09,0,0,0,4.65,3.1,16.24,16.24,0,0,0,6.18,1.12h.49a15.35,15.35,0,0,0,7.51-1.74,12.94,12.94,0,0,0,5.09-5.15Zm-46.54,9.37V424.8a8.32,8.32,0,0,1,1.68-5.15,5.5,5.5,0,0,1,4.59-2h.74a5.3,5.3,0,0,1,4.07,1.61c1,1.08,1.52,2.85,1.52,5.34v18.36h7.63V423.25a12.66,12.66,0,0,0-3-8.81,10.19,10.19,0,0,0-8-3.35H502a11.4,11.4,0,0,0-4.66,1,10.86,10.86,0,0,0-3.72,2.7V399.49H486v43.43Zm-20-6.79a3.17,3.17,0,0,1-.74-2.45V418h7.5V411.9h-7.5v-6.83h-6.52l-.81,6.83h-5.09V418h4.84v15.7a10.21,10.21,0,0,0,2.05,6.73c1.37,1.64,3.66,2.45,6.89,2.45h6v-6.14h-4.41a3.33,3.33,0,0,1-2.23-.65m-31.71,1.15a5.94,5.94,0,0,1-3.6-.93,3.08,3.08,0,0,1-1.24-2.61v-.25a3.4,3.4,0,0,1,1.4-2.82q1.39-1.1,4.93-1.09h5.65v1.12a6.27,6.27,0,0,1-1.83,5,7,7,0,0,1-4.81,1.62Zm-1.55,6.45a12,12,0,0,0,5.3-1.12,9.47,9.47,0,0,0,3.88-3.47l1.31,3.78h5.77V422.57q0-5.77-3.35-8.69T443.92,411h-.75q-5.4,0-8.5,2.21a10,10,0,0,0-4,5.37l6.7,2.73a5.55,5.55,0,0,1,2-2.61,6.12,6.12,0,0,1,3.76-1.05h.74a5.38,5.38,0,0,1,4,1.3,5,5,0,0,1,1.31,3.66v1.55h-5.53q-6.82,0-10.39,2.67a8.46,8.46,0,0,0-3.57,7.13v.44a8.92,8.92,0,0,0,2.7,6.86c1.8,1.67,4.34,2.51,7.6,2.51Zm-28.67-26.06a6.25,6.25,0,0,1,4.9,1.86,7.84,7.84,0,0,1,1.86,5H404.39a7.75,7.75,0,0,1,1.89-5,6.36,6.36,0,0,1,4.93-1.86ZM418,433.55a6.5,6.5,0,0,1-2.23,2.64,6.57,6.57,0,0,1-3.73,1h-.49a6.79,6.79,0,0,1-5.25-1.92,8.16,8.16,0,0,1-2-5h21.72V427q0-7.26-3.85-11.61t-10.49-4.34h-.5q-6.63,0-10.51,4.31a16,16,0,0,0-3.88,11.14v2a17.78,17.78,0,0,0,1,6.14,13.61,13.61,0,0,0,2.92,4.78,13.09,13.09,0,0,0,4.65,3.1,16.24,16.24,0,0,0,6.18,1.12h.49a15.35,15.35,0,0,0,7.51-1.74,12.94,12.94,0,0,0,5.09-5.15Zm-57.65,9.37,9.13-31.64,8.68,31.64h6.95L397.63,400v-.55h-7.45L382,430.2l-8.07-30.71h-8.25l-8.5,31.21-8-31.21h-7.88V400l12,42.88Zm-49-31v19.67a12.74,12.74,0,0,0,3,8.81,10.18,10.18,0,0,0,8,3.35h.81a11.35,11.35,0,0,0,5.12-1.15,10.52,10.52,0,0,0,3.88-3.26l1.3,3.6h5.71v-31H331.6V430a8.22,8.22,0,0,1-1.71,5.15,5.59,5.59,0,0,1-4.62,2.05h-.74a5.33,5.33,0,0,1-4-1.62q-1.55-1.61-1.55-5.34V411.9Zm-8.31,1.24a14.49,14.49,0,0,0-8.13-2.05h-.5q-6.65,0-10.52,3.91T280,425.42v4q0,6.53,3.88,10.43t10.52,3.91h.5a15,15,0,0,0,7.63-1.77,12.13,12.13,0,0,0,4.78-5.3l-6.27-3.54A7.09,7.09,0,0,1,298.8,436a6.28,6.28,0,0,1-3.87,1.09h-.5a6.15,6.15,0,0,1-5.21-2.17,8.88,8.88,0,0,1-1.68-5.59v-3.84a8.85,8.85,0,0,1,1.68-5.62q1.66-2.14,5.21-2.14h.5a6.18,6.18,0,0,1,3.94,1.15,7.52,7.52,0,0,1,2.26,3.07l6.58-3.1a12.54,12.54,0,0,0-4.65-5.71m-30.6,0a14.49,14.49,0,0,0-8.13-2.05h-.49q-6.64,0-10.52,3.91t-3.88,10.42v4q0,6.53,3.88,10.43t10.52,3.91h.49A15,15,0,0,0,272,442a12.11,12.11,0,0,0,4.77-5.3l-6.26-3.54a7.09,7.09,0,0,1-2.27,2.88,6.29,6.29,0,0,1-3.88,1.09h-.49a6.18,6.18,0,0,1-5.22-2.17,8.93,8.93,0,0,1-1.67-5.59v-3.84a8.9,8.9,0,0,1,1.67-5.62,6.22,6.22,0,0,1,5.22-2.14h.49a6.16,6.16,0,0,1,3.94,1.15,7.45,7.45,0,0,1,2.27,3.07l6.58-3.1a12.5,12.5,0,0,0-4.66-5.71m-43.5-2.3,5.16,16H223.69Zm-3.66-11.35-14.45,42.88v.55h7.56l3-9.06h15l2.92,9.06h7.94v-.55l-14.46-42.88Z" transform="translate(-210.85 -136.17)"/><path class="cls-1" d="M391.06,339.12a83,83,0,1,1,83-83.05,83.14,83.14,0,0,1-83,83.05m119.86-83.47-27.3-24.73,11.09-35.13-36-7.76-8-36-35.06,11.27L390.8,136.17l-24.75,27.3-35.13-11.08-7.77,36-36,8,11.27,35.07L271.3,256.3,298.59,281l-11.08,35.13,36,7.76,8,36,35.09-11.26,24.87,27.16,24.73-27.3,35.13,11.09,7.78-36,35.95-8-11.28-35.07Z" transform="translate(-210.85 -136.17)"/><path class="cls-1" d="M338.71,203.6a74.09,74.09,0,1,1,0,104.77,74.19,74.19,0,0,1,0-104.77" transform="translate(-210.85 -136.17)"/><path class="cls-1" d="M568.13,442.94a2.45,2.45,0,1,1,2.4-2.45A2.42,2.42,0,0,1,568.13,442.94Zm0-4.47a2,2,0,1,0,2,2A2,2,0,0,0,568.13,438.47Zm-.93.59h.88c.69,0,1.08.29,1.08.86V440a.77.77,0,0,1-.5.78l.56,1h-.61l-.5-.94h-.32v.94h-.59Zm.59.55v.7h.36c.26,0,.42-.11.42-.34v0c0-.21-.16-.32-.42-.32Z" transform="translate(-210.85 -136.17)"/></svg>